<svg xmlns="http://www.w3.org/2000/svg" viewBox="0 0 64 64" role="img" aria-labelledby="title desc">
  <title id="title">Nova Music Lab</title>
  <desc id="desc">A sonic N with a pulse point inside an open orbit.</desc>
  <defs>
    <radialGradient id="surface" cx="0" cy="0" r="1" gradientTransform="translate(19 12) rotate(48) scale(62)" gradientUnits="userSpaceOnUse">
      <stop stop-color="#123454"/>
      <stop offset=".43" stop-color="#0b1028"/>
      <stop offset="1" stop-color="#050713"/>
    </radialGradient>
    <linearGradient id="orbit" x1="11" y1="13" x2="54" y2="49" gradientUnits="userSpaceOnUse">
      <stop stop-color="#83f3ff"/>
      <stop offset=".55" stop-color="#6878ff"/>
      <stop offset="1" stop-color="#b867ff"/>
    </linearGradient>
    <linearGradient id="signal" x1="18" y1="21" x2="47" y2="43" gradientUnits="userSpaceOnUse">
      <stop stop-color="#f8fdff"/>
      <stop offset=".48" stop-color="#8cecff"/>
      <stop offset="1" stop-color="#d9c1ff"/>
    </linearGradient>
    <radialGradient id="pulse" cx="0" cy="0" r="1" gradientTransform="translate(37 27) scale(8)" gradientUnits="userSpaceOnUse">
      <stop stop-color="#ffc857" stop-opacity=".7"/>
      <stop offset="1" stop-color="#ffc857" stop-opacity="0"/>
    </radialGradient>
    <filter id="glow" x="-40%" y="-40%" width="180%" height="180%">
      <feGaussianBlur stdDeviation="1.6"/>
    </filter>
    <clipPath id="tile"><rect width="64" height="64" rx="15"/></clipPath>
  </defs>
  <g clip-path="url(#tile)">
    <rect width="64" height="64" fill="#050713"/>
    <rect width="64" height="64" fill="url(#surface)"/>
    <path d="M4 37c6-8 10 8 16 0s10-8 16 0 10 8 24-1" fill="none" stroke="#75e8ff" stroke-opacity=".12" stroke-width=".8"/>
    <g fill="none" stroke="#8beeff" stroke-opacity=".08" stroke-width=".6">
      <circle cx="32" cy="32" r="12.5"/><circle cx="32" cy="32" r="15.5"/><circle cx="32" cy="32" r="18.5"/>
    </g>
    <g fill="#d9f9ff" opacity=".32">
      <circle cx="11" cy="27" r=".55"/><circle cx="51" cy="16" r=".45"/><circle cx="53" cy="44" r=".6"/><circle cx="24" cy="10" r=".4"/>
    </g>
    <circle cx="32" cy="32" r="18" fill="#080b1d" opacity=".42"/>
    <path d="M15.03 15.03A24 24 0 1 1 9.45 40.21" fill="none" stroke="#7feeff" stroke-opacity=".2" stroke-width="7" filter="url(#glow)"/>
    <path d="M15.03 15.03A24 24 0 1 1 9.45 40.21" fill="none" stroke="url(#orbit)" stroke-width="3.25" stroke-linecap="round"/>
    <circle cx="15.03" cy="15.03" r="2.45" fill="#a8f7ff"/>
    <path d="M18 43V21l13 14 6-8 9 16V21" fill="none" stroke="#02040d" stroke-opacity=".82" stroke-width="9.25" stroke-linecap="round" stroke-linejoin="round"/>
    <path d="M18 43V21l13 14 6-8 9 16V21" fill="none" stroke="url(#signal)" stroke-width="5.75" stroke-linecap="round" stroke-linejoin="round"/>
    <circle cx="37" cy="27" r="8" fill="url(#pulse)"/>
    <circle cx="37" cy="27" r="2.35" fill="#ffc857"/>
    <rect x=".75" y=".75" width="62.5" height="62.5" rx="14.25" fill="none" stroke="#fff" stroke-opacity=".13" stroke-width="1.5"/>
  </g>
</svg>
