<svg xmlns="http://www.w3.org/2000/svg" viewBox="0 0 64 64" role="img" aria-label="Nova Music Lab">
  <path fill="currentColor" fill-rule="evenodd" d="M15.03 11.28a3.75 3.75 0 0 1 3.75 3.75 3.75 3.75 0 0 1-7.5 0 3.75 3.75 0 0 1 3.75-3.75Zm.87.22a27.75 27.75 0 1 1-9.98 30.27l6.94-2.84A20.25 20.25 0 1 0 20.1 17.1L15.9 11.5ZM14.75 21A3.25 3.25 0 0 1 21 19.8l10.2 11 3.2-4.27a3.25 3.25 0 0 1 5.42.3l3.18 5.66V21a3.25 3.25 0 1 1 6.5 0v22a3.25 3.25 0 0 1-6.08 1.59L36.6 32.46l-3 4a3.25 3.25 0 0 1-4.98.25L21.25 28.8V43a3.25 3.25 0 1 1-6.5 0V21Z"/>
  <circle cx="37" cy="27" r="2.6" fill="currentColor"/>
</svg>
